<?xml version="1.0" standalone="no"?>
<!DOCTYPE svg PUBLIC "-//W3C//DTD SVG 20010904//EN"
 "http://www.w3.org/TR/2001/REC-SVG-20010904/DTD/svg10.dtd">
<svg version="1.0" xmlns="http://www.w3.org/2000/svg"
 width="500.000000pt" height="500.000000pt" viewBox="0 0 500.000000 500.000000"
 preserveAspectRatio="xMidYMid meet">
<metadata>
Created by potrace 1.11, written by Peter Selinger 2001-2013
</metadata>
<g transform="translate(0.000000,500.000000) scale(0.100000,-0.100000)"
fill="#000000" stroke="none">
<path d="M0 2500 l0 -2500 2500 0 2500 0 0 2500 0 2500 -2500 0 -2500 0 0
-2500z m2805 2111 c117 -20 146 -28 157 -45 5 -7 8 -6 8 3 0 10 3 11 14 2 7
-6 21 -9 30 -5 9 3 16 2 16 -2 0 -5 11 -10 24 -10 33 -2 226 -65 226 -74 0 -4
18 -10 40 -14 22 -3 40 -11 40 -17 0 -5 4 -8 9 -4 5 3 16 -2 24 -10 9 -8 19
-15 23 -15 12 0 139 -64 142 -72 2 -5 9 -8 16 -8 7 0 21 -9 31 -20 10 -11 33
-25 51 -32 19 -7 34 -15 34 -19 0 -4 21 -19 48 -35 26 -15 51 -34 55 -41 5 -8
17 -17 27 -21 18 -7 173 -144 214 -190 12 -13 45 -49 74 -80 28 -31 52 -60 52
-65 0 -4 12 -21 28 -36 39 -42 52 -59 52 -70 0 -5 4 -11 9 -13 5 -1 36 -46 70
-98 33 -52 65 -100 70 -106 5 -6 18 -29 28 -50 11 -21 24 -48 30 -59 7 -11 14
-28 17 -37 3 -10 13 -18 23 -18 10 0 29 -10 43 -21 l25 -20 -31 15 c-29 14
-51 10 -530 -113 -274 -70 -636 -162 -805 -205 l-305 -78 -83 -241 c-46 -133
-86 -248 -90 -254 -4 -8 -38 41 -83 120 -43 74 -72 136 -68 141 5 5 34 5 70
-1 33 -5 57 -6 53 -2 -4 4 -64 32 -132 63 l-124 55 -57 -40 -58 -40 -17 -97
c-15 -79 -16 -107 -7 -156 7 -33 10 -61 9 -62 -2 -2 -43 114 -91 256 l-89 260
-36 9 c-20 6 -322 82 -671 171 -349 89 -696 177 -770 197 -91 24 -139 32 -150
26 -52 -32 -132 -72 -116 -59 11 9 23 16 28 16 4 0 15 15 23 33 28 57 42 77
50 69 5 -4 5 -2 2 4 -7 13 45 125 67 143 9 8 16 22 16 32 0 11 4 19 8 19 5 0
19 21 32 46 12 26 33 58 46 73 46 52 74 89 74 99 0 5 13 20 29 33 16 13 28 26
26 30 -3 3 18 25 45 48 28 23 50 49 50 56 0 8 12 22 28 32 15 10 54 44 87 76
33 33 72 65 86 73 15 7 29 19 32 26 2 8 44 38 92 68 48 30 106 67 129 82 22
15 47 28 54 28 6 0 12 5 12 11 0 5 4 8 8 5 5 -3 18 4 30 14 12 11 27 20 34 20
7 0 24 9 38 20 14 11 30 20 37 20 7 0 27 8 46 19 18 10 63 26 100 35 37 9 86
24 108 31 23 8 46 12 52 8 6 -4 7 -1 2 7 -6 10 -2 11 18 6 16 -4 27 -1 30 7 4
9 8 8 16 -3 9 -13 11 -13 11 3 0 13 8 17 34 17 19 0 37 4 40 9 3 4 67 16 143
25 76 10 147 19 158 21 54 10 408 -6 510 -24z m1815 -1337 c0 -2 -13 2 -30 11
-16 9 -30 18 -30 21 0 2 14 -2 30 -11 17 -9 30 -18 30 -21z m-4275 -22 c-18
-15 -85 -54 -85 -48 0 3 19 16 43 30 43 26 59 33 42 18z m429 -220 l207 -58
346 -254 c190 -140 463 -342 607 -449 143 -106 269 -199 278 -206 13 -9 22
-41 34 -131 8 -65 17 -126 20 -134 3 -8 28 21 66 78 34 51 63 91 64 89 2 -2
20 -79 39 -173 20 -93 37 -173 38 -178 2 -6 59 98 126 230 68 131 125 241 128
244 2 3 13 -6 22 -19 l19 -24 208 155 c173 129 705 521 976 720 61 46 80 53
260 102 106 29 229 62 274 73 l81 19 26 -110 c68 -281 86 -470 69 -709 -7 -90
-18 -185 -26 -213 -8 -27 -17 -66 -20 -86 -4 -21 -12 -38 -19 -38 -8 0 -6 -4
3 -11 11 -8 12 -12 3 -16 -8 -3 -11 -14 -7 -30 4 -15 3 -24 -2 -20 -6 3 -10
-2 -11 -11 -3 -34 -27 -112 -34 -112 -4 0 -10 -15 -14 -32 -10 -46 -35 -121
-45 -133 -4 -5 -9 -14 -11 -20 -7 -27 -41 -95 -48 -95 -4 0 -14 -18 -21 -40
-7 -22 -16 -40 -20 -40 -4 0 -19 -24 -33 -53 -14 -30 -33 -60 -42 -67 -8 -7
-15 -18 -15 -25 0 -6 -9 -23 -21 -36 -11 -13 -29 -34 -39 -46 -10 -12 -26 -37
-35 -55 -19 -37 -22 -40 -169 -192 -58 -60 -106 -112 -106 -116 0 -4 -12 -12
-27 -19 -15 -7 -33 -21 -41 -32 -7 -10 -20 -19 -27 -19 -8 0 -20 -9 -27 -20
-7 -11 -21 -20 -30 -20 -10 0 -18 -7 -18 -15 0 -8 -5 -15 -11 -15 -11 0 -89
-52 -123 -83 -11 -9 -26 -17 -33 -17 -12 0 -60 -26 -73 -40 -12 -13 -69 -38
-112 -51 -27 -7 -48 -17 -48 -22 0 -5 -9 -7 -20 -4 -11 3 -18 1 -15 -3 3 -5
-12 -14 -32 -20 -21 -6 -52 -18 -70 -26 -17 -8 -37 -14 -45 -14 -8 0 -19 -5
-24 -10 -18 -18 -226 -69 -342 -84 -24 -3 -46 -8 -50 -10 -4 -2 -69 -10 -145
-16 -154 -14 -421 -1 -532 25 -33 8 -96 22 -140 31 -44 8 -107 26 -140 39 -33
13 -96 36 -140 50 -44 14 -89 31 -100 39 -11 7 -44 21 -72 31 -29 11 -53 23
-53 27 0 4 -6 8 -13 8 -18 0 -67 24 -67 33 0 4 -5 7 -11 7 -6 0 -31 14 -56 30
-24 17 -62 39 -84 50 -21 11 -39 25 -39 30 0 6 -7 10 -15 10 -8 0 -15 5 -15
10 0 6 -8 14 -17 17 -9 4 -24 14 -33 22 -36 34 -82 71 -89 71 -3 0 -53 50
-111 112 -58 61 -115 121 -127 133 -13 12 -23 27 -23 32 0 5 -9 18 -21 29 -12
10 -37 44 -57 74 -20 30 -39 57 -42 60 -3 3 -16 25 -29 50 -13 25 -31 51 -40
58 -9 7 -15 16 -13 20 1 4 -5 15 -13 25 -8 9 -15 22 -15 27 0 5 -16 34 -34 64
-19 29 -38 66 -42 82 -4 16 -16 43 -27 61 -10 18 -16 33 -12 33 4 0 2 6 -4 14
-15 18 -53 128 -42 121 5 -3 -2 16 -14 43 -13 26 -26 69 -29 95 -3 27 -8 53
-12 58 -3 5 -12 51 -20 102 -27 163 -28 179 -14 187 9 6 8 13 -5 33 -14 21
-15 44 -11 144 3 65 5 129 5 143 2 64 24 221 32 226 5 3 7 9 4 14 -14 22 51
253 69 243 7 -4 6 -1 -1 7 -8 9 -9 19 -3 30 9 17 16 16 113 -7 57 -13 197 -50
311 -81z"/>
</g>
</svg>
